<mxfile host="app.diagrams.net" agent="Mozilla/5.0 (Macintosh; Intel Mac OS X 10_15_7) AppleWebKit/537.36 (KHTML, like Gecko) Chrome/131.0.0.0 Safari/537.36" version="25.0.3">
  <diagram name="Page-1" id="gmYKYVq6cZ4wLupK1Xb5">
    <mxGraphModel dx="2044" dy="789" grid="1" gridSize="10" guides="1" tooltips="1" connect="1" arrows="1" fold="1" page="1" pageScale="1" pageWidth="850" pageHeight="1100" math="0" shadow="0">
      <root>
        <mxCell id="0" />
        <mxCell id="1" parent="0" />
        <mxCell id="N7E2ui3s0i_7hdGitSKV-4" style="edgeStyle=orthogonalEdgeStyle;rounded=0;orthogonalLoop=1;jettySize=auto;html=1;" edge="1" parent="1" source="N7E2ui3s0i_7hdGitSKV-3">
          <mxGeometry relative="1" as="geometry">
            <mxPoint x="-680" y="400" as="targetPoint" />
          </mxGeometry>
        </mxCell>
        <mxCell id="N7E2ui3s0i_7hdGitSKV-3" value="start" style="strokeWidth=2;html=1;shape=mxgraph.flowchart.start_1;whiteSpace=wrap;" vertex="1" parent="1">
          <mxGeometry x="-840" y="370" width="80" height="60" as="geometry" />
        </mxCell>
        <mxCell id="N7E2ui3s0i_7hdGitSKV-6" style="edgeStyle=orthogonalEdgeStyle;rounded=0;orthogonalLoop=1;jettySize=auto;html=1;" edge="1" parent="1" source="N7E2ui3s0i_7hdGitSKV-5">
          <mxGeometry relative="1" as="geometry">
            <mxPoint x="-520" y="400" as="targetPoint" />
          </mxGeometry>
        </mxCell>
        <mxCell id="N7E2ui3s0i_7hdGitSKV-5" value="input a, b" style="shape=parallelogram;html=1;strokeWidth=2;perimeter=parallelogramPerimeter;whiteSpace=wrap;rounded=1;arcSize=12;size=0.23;" vertex="1" parent="1">
          <mxGeometry x="-690" y="370" width="100" height="60" as="geometry" />
        </mxCell>
        <mxCell id="N7E2ui3s0i_7hdGitSKV-8" style="edgeStyle=orthogonalEdgeStyle;rounded=0;orthogonalLoop=1;jettySize=auto;html=1;" edge="1" parent="1" source="N7E2ui3s0i_7hdGitSKV-7">
          <mxGeometry relative="1" as="geometry">
            <mxPoint x="-320" y="400" as="targetPoint" />
          </mxGeometry>
        </mxCell>
        <mxCell id="N7E2ui3s0i_7hdGitSKV-7" value="sum = a + b" style="rounded=1;whiteSpace=wrap;html=1;absoluteArcSize=1;arcSize=14;strokeWidth=2;" vertex="1" parent="1">
          <mxGeometry x="-520" y="365" width="110" height="70" as="geometry" />
        </mxCell>
        <mxCell id="N7E2ui3s0i_7hdGitSKV-10" style="edgeStyle=orthogonalEdgeStyle;rounded=0;orthogonalLoop=1;jettySize=auto;html=1;" edge="1" parent="1" source="N7E2ui3s0i_7hdGitSKV-9">
          <mxGeometry relative="1" as="geometry">
            <mxPoint x="-160" y="400" as="targetPoint" />
          </mxGeometry>
        </mxCell>
        <mxCell id="N7E2ui3s0i_7hdGitSKV-9" value="print(&quot;sum&quot;)" style="strokeWidth=2;html=1;shape=mxgraph.flowchart.display;whiteSpace=wrap;" vertex="1" parent="1">
          <mxGeometry x="-320" y="370" width="100" height="60" as="geometry" />
        </mxCell>
        <mxCell id="N7E2ui3s0i_7hdGitSKV-11" value="end" style="strokeWidth=2;html=1;shape=mxgraph.flowchart.start_1;whiteSpace=wrap;" vertex="1" parent="1">
          <mxGeometry x="-160" y="370" width="80" height="60" as="geometry" />
        </mxCell>
      </root>
    </mxGraphModel>
  </diagram>
</mxfile>
